<svg width="30" height="30" viewBox="0 0 30 30" fill="none" xmlns="http://www.w3.org/2000/svg">
<g id="Edit" clip-path="url(#clip0_4_458)">
<path id="Vector" d="M4.375 30H23.125C24.2871 29.9967 25.4005 29.5325 26.2207 28.7092C27.0409 27.8859 27.501 26.7709 27.5 25.6088V16.1875C27.5 15.856 27.3683 15.538 27.1339 15.3036C26.8995 15.0692 26.5815 14.9375 26.25 14.9375C25.9185 14.9375 25.6005 15.0692 25.3661 15.3036C25.1317 15.538 25 15.856 25 16.1875V25.6088C25.0017 26.108 24.8052 26.5876 24.4536 26.9422C24.1021 27.2967 23.6243 27.4974 23.125 27.5H4.375C3.87572 27.4974 3.39788 27.2967 3.04636 26.9422C2.69483 26.5876 2.49834 26.108 2.5 25.6088V6.89125C2.49834 6.39196 2.69483 5.91241 3.04636 5.55784C3.39788 5.20327 3.87572 5.00265 4.375 5H13.75C14.0815 5 14.3995 4.8683 14.6339 4.63388C14.8683 4.39946 15 4.08152 15 3.75C15 3.41848 14.8683 3.10054 14.6339 2.86612C14.3995 2.6317 14.0815 2.5 13.75 2.5H4.375C3.21288 2.50331 2.09955 2.96754 1.27932 3.79081C0.459102 4.61408 -0.000996364 5.72913 1.62014e-06 6.89125V25.6088C-0.000996364 26.7709 0.459102 27.8859 1.27932 28.7092C2.09955 29.5325 3.21288 29.9967 4.375 30Z" fill="#008234"/>
<path id="Vector_2" d="M11.8187 13.18L10.8325 17.6975C10.7878 17.9024 10.7955 18.1153 10.8547 18.3164C10.9139 18.5176 11.0227 18.7007 11.1712 18.8488C11.3218 18.9931 11.5049 19.099 11.7051 19.1576C11.9053 19.2161 12.1166 19.2255 12.3212 19.185L16.8287 18.1963C17.0628 18.1449 17.2771 18.0273 17.4462 17.8575L28.8387 6.465C29.187 6.11677 29.4633 5.70335 29.6518 5.24834C29.8403 4.79332 29.9373 4.30564 29.9373 3.81313C29.9373 3.32062 29.8403 2.83293 29.6518 2.37792C29.4633 1.9229 29.187 1.50948 28.8387 1.16125C28.1247 0.478921 27.1751 0.0981483 26.1875 0.0981483C25.1999 0.0981483 24.2503 0.478921 23.5362 1.16125L12.1612 12.565C11.9905 12.733 11.8716 12.9464 11.8187 13.18ZM25.3037 2.93C25.5415 2.70218 25.8582 2.57499 26.1875 2.57499C26.5168 2.57499 26.8334 2.70218 27.0712 2.93C27.3025 3.16579 27.432 3.48287 27.432 3.81313C27.432 4.14338 27.3025 4.46046 27.0712 4.69625L26.1875 5.58L24.42 3.8125L25.3037 2.93ZM14.1787 14.0725L22.6462 5.58375L24.3962 7.3425L15.925 15.8338L13.6812 16.3263L14.1787 14.0725Z" fill="#008234"/>
</g>
<defs>
<clipPath id="clip0_4_458">
<rect width="30" height="30" fill="white"/>
</clipPath>
</defs>
</svg>
